<svg version="1.2" baseProfile="tiny" xmlns="http://www.w3.org/2000/svg" xmlns:xlink="http://www.w3.org/1999/xlink"
	 x="0px" y="0px" viewBox="0 0 134.5 134.7" xml:space="preserve">
<path d="M67.3,64.3c1.6,0,2.7-1.1,2.7-2.9V44c0-1.9-1.1-2.9-2.7-2.9c-1.6,0-2.7,1.1-2.7,2.9v17.3C64.5,63.2,65.7,64.3,67.3,64.3z
	 M45.5,134.7c1.6,0,3.2-0.9,4.6-2.1l16.3-15.3c0.4-0.4,0.6-0.5,0.9-0.5c0.2,0,0.5,0.1,0.9,0.5l16.3,15.3c1.3,1.3,2.9,2.1,4.5,2.1
	c2.3,0,4.1-2.1,4.1-4.4c0-1.3-0.5-2.8-1.2-4.6L72,74.4c-1.2-3-2.7-4.3-4.7-4.3c-2,0-3.6,1.3-4.8,4.3l-19.9,51.2
	c-0.7,1.9-1.2,3.3-1.2,4.6C41.4,132.5,43.1,134.7,45.5,134.7z"/>
<path class="moon" d="M72.5,20.3c0.4,0,0.6-0.2,0.7-0.6c1.1-6.4,1.1-6.6,7.9-7.9c0.4,0,0.6-0.3,0.6-0.7c0-0.4-0.2-0.7-0.6-0.7
	c-6.7-1.4-6.7-1.5-7.9-7.9c-0.1-0.4-0.3-0.6-0.7-0.6s-0.6,0.2-0.7,0.6c-1.2,6.3-1.1,6.5-7.9,7.9c-0.4,0-0.6,0.3-0.6,0.7
	c0,0.4,0.2,0.6,0.6,0.7c6.8,1.3,6.7,1.5,7.9,7.9C71.8,20.1,72.1,20.3,72.5,20.3z M90.7,45.8c0.6,0,1.1-0.4,1.2-1.1
	c1.3-10.3,1.7-10.4,12.1-12.1c0.7-0.1,1.2-0.5,1.2-1.2c0-0.6-0.4-1-1.1-1.2c-10.4-2-10.9-1.9-12.2-12.1c-0.1-0.7-0.5-1.1-1.2-1.1
	c-0.6,0-1.1,0.4-1.1,1.1c-1.4,10.4-1.7,10.6-12.3,12.2c-0.6,0.1-1,0.5-1,1.2s0.4,1,1,1.2c10.6,2,10.9,2,12.3,12.2
	C89.6,45.4,90.1,45.8,90.7,45.8z M62,81.2c13.8,0,24.7-6.8,30-18.5c0.6-1.3,0.5-2.4-0.1-3c-0.6-0.6-1.6-0.6-2.7-0.2
	c-3.1,1.2-6.7,1.9-10.9,1.9c-17.6,0-28.7-10.9-28.7-28.1c0-4.7,0.9-9.3,2.1-11.8c0.6-1.2,0.6-2.3,0-3c-0.6-0.7-1.8-0.8-3.2-0.2
	C37.2,23,29.4,35.2,29.4,49C29.4,67.4,42.8,81.2,62,81.2z"/>
</svg>
