<svg id="day" version="1.2" baseProfile="tiny" xmlns="http://www.w3.org/2000/svg" xmlns:xlink="http://www.w3.org/1999/xlink"
	 x="0px" y="0px" viewBox="0 0 82.5 82.7" xml:space="preserve">
<path d="M44.2,3c0-1.6-1.3-3-2.9-3c-1.6,0-3,1.4-3,3v8.2c0,1.6,1.4,2.9,3,2.9c1.6,0,2.9-1.3,2.9-2.9V3z"/>
<path d="M60.4,18c-1.1,1.1-1.1,3,0,4.2c1.1,1.1,3,1.2,4.2,0l5.8-5.9c1.1-1.1,1.1-3,0-4.2c-1.1-1.2-3-1.2-4.2,0L60.4,18z"/>
<path d="M17.9,22.2c1.1,1.1,3,1.1,4.2,0c1.1-1.1,1.1-3.1,0-4.2l-5.8-5.9c-1.1-1.1-3-1.2-4.2,0c-1.1,1.1-1.1,3,0,4.2L17.9,22.2z"/>
<path d="M41.2,22.2c-10.4,0-19.1,8.7-19.1,19.2c0,10.5,8.7,19.2,19.1,19.2c10.5,0,19.2-8.7,19.2-19.2C60.4,30.9,51.7,22.2,41.2,22.2
	z"/>
<path d="M79.5,44.3c1.6,0,3-1.4,3-3c0-1.6-1.4-3-3-3h-8.2c-1.6,0-3,1.4-3,3c0,1.6,1.4,3,3,3H79.5z"/>
<path d="M3,38.4c-1.6,0-3,1.4-3,3c0,1.6,1.4,3,3,3h8.2c1.6,0,3-1.4,3-3c0-1.6-1.4-3-3-3H3z"/>
<path d="M64.6,60.6c-1.1-1.1-3-1.1-4.2,0c-1.1,1.1-1.1,3,0,4.2l5.9,5.9c1.1,1.1,3,1.1,4.2,0c1.1-1.1,1.1-3,0-4.2L64.6,60.6z"/>
<path d="M12,66.4c-1.1,1.1-1.1,3,0,4.2c1.1,1.1,3,1.2,4.2,0l5.9-5.8c1.1-1.1,1.1-3,0-4.2c-1.1-1.1-3-1.1-4.2,0L12,66.4z"/>
<path d="M44.2,71.5c0-1.6-1.3-2.9-2.9-2.9c-1.6,0-3,1.3-3,2.9v8.2c0,1.6,1.4,3,3,3c1.6,0,2.9-1.4,2.9-3V71.5z"/>
</svg>
