<svg version="1.2" baseProfile="tiny" xmlns="http://www.w3.org/2000/svg" xmlns:xlink="http://www.w3.org/1999/xlink"
	 x="0px" y="0px" viewBox="0 0 134.5 134.7" xml:space="preserve">
<path d="M67.3,64.3c1.6,0,2.7-1.1,2.7-2.9V44c0-1.9-1.1-2.9-2.7-2.9c-1.6,0-2.7,1.1-2.7,2.9v17.3C64.5,63.2,65.7,64.3,67.3,64.3z
	 M45.5,134.7c1.6,0,3.2-0.9,4.6-2.1l16.3-15.3c0.4-0.4,0.6-0.5,0.9-0.5c0.2,0,0.5,0.1,0.9,0.5l16.3,15.3c1.3,1.3,2.9,2.1,4.5,2.1
	c2.3,0,4.1-2.1,4.1-4.4c0-1.3-0.5-2.8-1.2-4.6L72,74.4c-1.2-3-2.7-4.3-4.7-4.3c-2,0-3.6,1.3-4.8,4.3l-19.9,51.2
	c-0.7,1.9-1.2,3.3-1.2,4.6C41.4,132.5,43.1,134.7,45.5,134.7z"/>
<g class="sun" id="Light-S_2_" transform="matrix(1 0 0 1 1105.04 696)">
	<path d="M-1008.9-693c0-1.6-1.3-3-2.9-3c-1.6,0-3,1.4-3,3v8.2c0,1.6,1.4,2.9,3,2.9c1.6,0,2.9-1.3,2.9-2.9V-693z M-992.6-678
		c-1.1,1.1-1.1,3,0,4.2c1.1,1.1,3,1.2,4.2,0l5.8-5.9c1.1-1.1,1.1-3,0-4.2c-1.1-1.2-3-1.2-4.2,0L-992.6-678z M-1035.2-673.8
		c1.1,1.1,3,1.1,4.2,0c1.1-1.1,1.1-3.1,0-4.2l-5.8-5.9c-1.1-1.1-3-1.2-4.2,0c-1.1,1.1-1.1,3,0,4.2L-1035.2-673.8z M-1011.8-673.8
		c-10.4,0-19.1,8.7-19.1,19.2s8.7,19.2,19.1,19.2c10.5,0,19.2-8.7,19.2-19.2S-1001.3-673.8-1011.8-673.8z M-973.5-651.7
		c1.6,0,3-1.4,3-3c0-1.6-1.4-3-3-3h-8.2c-1.6,0-3,1.4-3,3c0,1.6,1.4,3,3,3H-973.5z M-1050.1-657.6c-1.6,0-3,1.4-3,3c0,1.6,1.4,3,3,3
		h8.2c1.6,0,3-1.4,3-3c0-1.6-1.4-3-3-3H-1050.1z M-988.4-635.4c-1.1-1.1-3-1.1-4.2,0c-1.1,1.1-1.1,3,0,4.2l5.9,5.9
		c1.1,1.1,3,1.1,4.2,0c1.1-1.1,1.1-3,0-4.2L-988.4-635.4z M-1041-629.6c-1.1,1.1-1.1,3,0,4.2c1.1,1.1,3,1.2,4.2,0l5.9-5.8
		c1.1-1.1,1.1-3,0-4.2c-1.1-1.1-3-1.1-4.2,0L-1041-629.6z M-1008.9-624.5c0-1.6-1.3-2.9-2.9-2.9c-1.6,0-3,1.3-3,2.9v8.2
		c0,1.6,1.4,3,3,3c1.6,0,2.9-1.4,2.9-3V-624.5z"/>
</g>
</svg>
